<svg viewBox="0 0 697 150" fill="none" xmlns="http://www.w3.org/2000/svg">
    <path fill-rule="evenodd" clip-rule="evenodd" d="M0 5a5 5 0 0 1 5-5h20a5 5 0 0 1 5 5v20a5 5 0 0 0 5 5h20a5 5 0 0 0 5-5V5a5 5 0 0 1 5-5h20a5 5 0 0 1 5 5v20a5 5 0 0 0 5 5h20a5 5 0 0 1 5 5v20a5 5 0 0 1-5 5H95a5 5 0 0 0-5 5v20a5 5 0 0 0 5 5h20a5 5 0 0 1 5 5v20a5 5 0 0 1-5 5H95a5 5 0 0 0-5 5v20a5 5 0 0 1-5 5H65a5 5 0 0 1-5-5v-20a5 5 0 0 0-5-5H35a5 5 0 0 0-5 5v20a5 5 0 0 1-5 5H5a5 5 0 0 1-5-5v-20a5 5 0 0 1 5-5h20a5 5 0 0 0 5-5V95a5 5 0 0 0-5-5H5a5 5 0 0 1-5-5V65a5 5 0 0 1 5-5h20a5 5 0 0 0 5-5V35a5 5 0 0 0-5-5H5a5 5 0 0 1-5-5V5Zm90 110V95a5 5 0 0 0-5-5H65a5 5 0 0 0-5 5v20a5 5 0 0 0 5 5h20a5 5 0 0 0 5-5ZM60 65v20a5 5 0 0 1-5 5H35a5 5 0 0 1-5-5V65a5 5 0 0 1 5-5h20a5 5 0 0 1 5 5Zm5-35h20a5 5 0 0 1 5 5v20a5 5 0 0 1-5 5H65a5 5 0 0 1-5-5V35a5 5 0 0 1 5-5Z" fill="currentColor"/>
    <path d="M652.607 28v36.066c2.044-3.592 4.706-6.423 7.985-8.494 3.321-2.112 7.665-3.169 13.03-3.169 4.982 0 9.219.972 12.711 2.916 3.534 1.901 6.196 4.606 7.984 8.113 1.789 3.465 2.683 7.543 2.683 12.234v45.32h-12.647v-40.82c0-5.198-1.171-9.19-3.513-11.98-2.3-2.789-5.791-4.183-10.476-4.183-3.662 0-6.834.845-9.517 2.535-2.683 1.648-4.727 3.909-6.132 6.782-1.405 2.832-2.108 6.022-2.108 9.571v38.095H639.96V28h12.647Zm-35.842 46.587c-1.064-3.888-2.938-6.782-5.62-8.684-2.683-1.944-6.26-2.915-10.731-2.915-4.386 0-7.729.824-10.029 2.472-2.256 1.648-3.385 3.824-3.385 6.528 0 2.24.745 3.994 2.236 5.261 1.533 1.226 3.428 2.134 5.684 2.726 2.3.591 5.451 1.183 9.454 1.775 5.323.802 9.645 1.69 12.966 2.662 3.322.93 6.154 2.64 8.496 5.134 2.384 2.45 3.577 5.958 3.577 10.522 0 4.31-1.108 8.134-3.322 11.473-2.214 3.296-5.344 5.873-9.389 7.733-4.046 1.817-8.709 2.725-13.989 2.725-4.812 0-9.24-.761-13.286-2.282-4.003-1.521-7.409-3.761-10.22-6.719-2.768-3-4.726-6.613-5.876-10.838l11.881-3.423c1.022 4.268 3.129 7.479 6.323 9.634 3.194 2.113 7.026 3.17 11.498 3.17 2.853 0 5.301-.402 7.345-1.205 2.087-.845 3.683-2.007 4.791-3.486 1.107-1.479 1.66-3.169 1.66-5.071 0-2.197-.787-3.93-2.363-5.197-1.533-1.31-3.449-2.261-5.749-2.853-2.299-.591-5.493-1.225-9.581-1.901-5.195-.845-9.453-1.796-12.775-2.853-3.279-1.056-6.068-2.83-8.367-5.324-2.3-2.535-3.449-6.043-3.449-10.522 0-4.268 1.085-7.965 3.257-11.092 2.214-3.127 5.302-5.515 9.262-7.163 4.003-1.648 8.644-2.472 13.925-2.472 7.75 0 13.882 1.712 18.395 5.134 4.557 3.381 7.495 7.945 8.815 13.692l-11.434 3.36Zm-65.862 46.398v-10.332c-5.195 7.564-12.669 11.346-22.42 11.346-4.684 0-8.687-.803-12.009-2.409-3.321-1.605-5.855-3.908-7.601-6.909-1.703-3.042-2.554-6.634-2.554-10.775 0-5.324 1.362-9.36 4.087-12.107 2.726-2.788 5.898-4.669 9.518-5.64 3.662-.973 8.431-1.797 14.308-2.473 4.002-.465 7.09-.95 9.261-1.458 2.215-.507 3.982-1.33 5.302-2.472 1.32-1.14 1.98-2.767 1.98-4.88 0-2.79-1.15-5.029-3.449-6.72-2.3-1.732-5.664-2.598-10.092-2.598-4.684 0-8.538 1.035-11.562 3.106-2.98 2.028-5.088 5.007-6.323 8.937L507.34 72.18c1.917-6.212 5.43-11.05 10.54-14.516 5.11-3.507 11.625-5.26 19.545-5.26 5.493 0 10.178.866 14.053 2.598 3.875 1.69 6.813 4.141 8.814 7.353 2.044 3.211 3.066 7.078 3.066 11.6v47.031h-12.455Zm-32.001-19.396c0 6.17 3.96 9.254 11.88 9.254 3.705 0 7.069-.634 10.092-1.901 3.024-1.268 5.43-3.127 7.218-5.578 1.789-2.493 2.683-5.451 2.683-8.874v-6.529c-1.959.719-4.173 1.331-6.643 1.838-2.47.465-5.557.972-9.262 1.522-3.96.55-6.941 1.077-8.942 1.584-1.959.507-3.62 1.437-4.982 2.79-1.363 1.31-2.044 3.274-2.044 5.894Zm-35.713 19.397V109.64c-1.959 4.226-4.706 7.353-8.24 9.381-3.492 1.986-7.772 2.979-12.839 2.979-6.43 0-11.817-1.479-16.16-4.437-4.344-2.958-7.58-7.036-9.709-12.233-2.129-5.24-3.194-11.262-3.194-18.065 0-6.846 1.065-12.867 3.194-18.065 2.129-5.24 5.344-9.339 9.645-12.296 4.344-3 9.688-4.5 16.032-4.5 10.263 0 17.31 3.971 21.143 11.916V28h12.647v92.986h-12.519Zm-37.495-33.721c0 4.944.746 9.19 2.236 12.74 1.49 3.508 3.641 6.191 6.451 8.05 2.811 1.86 6.154 2.789 10.029 2.789s7.196-.929 9.964-2.789c2.81-1.859 4.961-4.542 6.451-8.05 1.491-3.55 2.236-7.796 2.236-12.74 0-5.028-.745-9.296-2.236-12.804-1.49-3.55-3.641-6.233-6.451-8.05-2.768-1.859-6.089-2.789-9.964-2.789s-7.218.93-10.029 2.79c-2.768 1.816-4.918 4.5-6.451 8.05-1.49 3.507-2.236 7.775-2.236 12.803Zm-66.628 4.373c.17 3.634.979 6.909 2.427 9.824 1.49 2.874 3.641 5.156 6.451 6.846 2.811 1.69 6.196 2.535 10.156 2.535 7.921 0 13.776-3.528 17.566-10.585l10.347 4.881c-2.768 5.155-6.494 9.254-11.178 12.296-4.641 3.043-10.433 4.564-17.374 4.564-6.685 0-12.349-1.437-16.99-4.31-4.599-2.874-8.07-6.888-10.412-12.043-2.342-5.198-3.513-11.22-3.513-18.065 0-7.141 1.256-13.353 3.769-18.635 2.555-5.325 6.174-9.402 10.858-12.233 4.685-2.874 10.22-4.31 16.608-4.31 5.919 0 11.05 1.225 15.394 3.676 4.386 2.45 7.75 5.979 10.092 10.585 2.384 4.606 3.577 10.057 3.577 16.353v8.62h-47.778Zm35.003-10.459c-.171-6-1.704-10.437-4.599-13.31-2.896-2.874-6.856-4.31-11.881-4.31-5.45 0-9.709 1.584-12.775 4.753-3.023 3.127-4.897 7.416-5.621 12.867h34.876Zm-66.245-6.592c-1.065-3.888-2.939-6.782-5.621-8.684-2.683-1.944-6.26-2.915-10.731-2.915-4.386 0-7.729.824-10.029 2.472-2.256 1.648-3.385 3.824-3.385 6.528 0 2.24.745 3.994 2.236 5.261 1.533 1.226 3.428 2.134 5.685 2.726 2.299.591 5.45 1.183 9.453 1.775 5.323.802 9.645 1.69 12.966 2.662 3.322.93 6.154 2.64 8.496 5.134 2.384 2.45 3.577 5.958 3.577 10.522 0 4.31-1.108 8.134-3.322 11.473-2.214 3.296-5.344 5.873-9.389 7.733-4.046 1.817-8.709 2.725-13.989 2.725-4.812 0-9.24-.761-13.286-2.282-4.002-1.521-7.409-3.761-10.22-6.719-2.767-3-4.726-6.613-5.876-10.838l11.881-3.423c1.022 4.268 3.129 7.479 6.323 9.634 3.194 2.113 7.026 3.17 11.498 3.17 2.853 0 5.301-.402 7.345-1.205 2.087-.845 3.683-2.007 4.791-3.486 1.107-1.479 1.66-3.169 1.66-5.071 0-2.197-.787-3.93-2.363-5.197-1.533-1.31-3.449-2.261-5.749-2.853-2.299-.591-5.493-1.225-9.581-1.901-5.195-.845-9.453-1.796-12.775-2.853-3.279-1.056-6.068-2.83-8.367-5.324-2.3-2.535-3.449-6.043-3.449-10.522 0-4.268 1.085-7.965 3.257-11.092 2.215-3.127 5.302-5.515 9.262-7.163 4.003-1.648 8.644-2.472 13.925-2.472 7.75 0 13.882 1.712 18.395 5.134 4.557 3.381 7.495 7.945 8.815 13.692l-11.433 3.36Zm-65.862 46.398v-10.332c-5.195 7.564-12.668 11.346-22.42 11.346-4.684 0-8.687-.803-12.008-2.409-3.322-1.605-5.855-3.908-7.601-6.909-1.704-3.042-2.555-6.634-2.555-10.775 0-5.324 1.362-9.36 4.088-12.107 2.725-2.788 5.898-4.669 9.517-5.64 3.662-.973 8.431-1.797 14.308-2.473 4.003-.465 7.09-.95 9.262-1.458 2.214-.507 3.981-1.33 5.301-2.472 1.32-1.14 1.98-2.767 1.98-4.88 0-2.79-1.149-5.029-3.449-6.72-2.299-1.732-5.663-2.598-10.092-2.598-4.684 0-8.538 1.035-11.561 3.106-2.981 2.028-5.089 5.007-6.324 8.937L238.4 72.18c1.916-6.212 5.429-11.05 10.539-14.516 5.11-3.507 11.625-5.26 19.546-5.26 5.493 0 10.177.866 14.052 2.598 3.875 1.69 6.813 4.141 8.815 7.353 2.044 3.211 3.066 7.078 3.066 11.6v47.031h-12.456Zm-32.001-19.396c0 6.17 3.96 9.254 11.881 9.254 3.704 0 7.068-.634 10.092-1.901 3.023-1.268 5.429-3.127 7.218-5.578 1.788-2.493 2.682-5.451 2.682-8.874v-6.529c-1.958.719-4.173 1.331-6.643 1.838-2.469.465-5.557.972-9.261 1.522-3.961.55-6.941 1.077-8.943 1.584-1.959.507-3.619 1.437-4.982 2.79-1.363 1.31-2.044 3.274-2.044 5.894ZM200.77 30.093c5.748 0 10.645.909 14.691 2.726 4.088 1.774 7.175 4.352 9.261 7.732 2.087 3.339 3.13 7.29 3.13 11.853 0 4.902-1.149 9.212-3.449 12.931-2.257 3.676-5.451 6.275-9.581 7.796 4.812 1.141 8.538 3.613 11.178 7.416 2.64 3.804 3.96 8.473 3.96 14.009 0 5.155-1.15 9.74-3.449 13.754-2.257 3.972-5.493 7.078-9.709 9.318-4.216 2.239-9.113 3.359-14.691 3.359H165V30.093h35.77Zm.063 78.534c4.983 0 8.879-1.352 11.689-4.057 2.811-2.746 4.216-6.423 4.216-11.029 0-4.521-1.384-8.07-4.152-10.648-2.768-2.578-6.643-3.867-11.625-3.867h-22.867v29.601h22.739Zm-1.596-40.313c4.897 0 8.708-1.162 11.433-3.486 2.725-2.366 4.088-5.578 4.088-9.635 0-4.014-1.32-7.14-3.96-9.38-2.598-2.24-6.196-3.36-10.795-3.36h-21.909v25.861h21.143Z" fill="currentColor"/>
</svg>