<svg viewBox="0 0 1152 301" fill="currentColor" xmlns="http://www.w3.org/2000/svg">
<path d="M151.815 0.00521369C67.6549 -0.687086 -0.687086 67.6549 0.00521369 151.815C0.712564 233.536 67.4743 300.313 149.181 300.99C233.34 301.713 301.713 233.34 300.99 149.181C300.313 67.4894 233.536 0.712564 151.815 0.00521369ZM106.815 74.909C116.447 87.1447 122.211 102.631 122.211 119.427C122.211 133.98 117.892 147.525 110.472 158.828H58.2938L106.8 74.894L106.815 74.909ZM265.894 166.594V177.43C265.894 178.137 265.517 178.739 264.87 179.01C261.333 180.515 249.67 185.933 244.808 192.675C232.287 210.103 222.73 237.494 201.359 237.494H112.188C80.613 237.494 54.2002 212.436 54.2153 179.055C54.2153 178.227 54.9226 177.55 55.7504 177.55H98.0108C99.4706 177.55 100.614 178.724 100.614 180.154V188.311C100.614 192.645 104.121 196.167 108.471 196.167H140.527V177.505H118.629C131.226 161.552 138.721 141.415 138.721 119.487C138.721 95.0309 129.345 72.7268 113.994 56.0514C123.28 57.135 132.159 58.9861 140.527 61.4393V56.247C140.527 50.8591 144.892 46.4947 150.279 46.4947C155.667 46.4947 160.032 50.8591 160.032 56.247V68.7686C189.951 82.735 209.546 105.912 209.546 132.129C209.546 147.51 202.819 161.823 191.215 173.863C188.988 176.165 185.903 177.475 182.667 177.475H160.047V196.107H188.446C194.572 196.107 205.558 184.488 210.765 177.49C210.765 177.49 210.991 177.144 211.593 176.963C212.195 176.782 263.741 164.953 263.741 164.953C264.825 164.652 265.894 165.48 265.894 166.579V166.594Z" />
<path d="M423.25 215.814C411.343 215.814 400.408 213.019 390.445 207.43C380.482 201.841 372.585 194.126 366.753 184.284C360.921 174.321 358.005 163.083 358.005 150.568C358.005 138.175 360.921 127.058 366.753 117.216C372.585 107.253 380.482 99.4779 390.445 93.8889C400.408 88.2999 411.343 85.5054 423.25 85.5054C435.279 85.5054 446.214 88.2999 456.055 93.8889C466.018 99.4779 473.855 107.253 479.566 117.216C485.398 127.058 488.314 138.175 488.314 150.568C488.314 163.083 485.398 174.321 479.566 184.284C473.855 194.126 466.018 201.841 456.055 207.43C446.092 213.019 435.157 215.814 423.25 215.814ZM423.25 193.032C430.905 193.032 437.648 191.331 443.48 187.929C449.312 184.406 453.868 179.424 457.149 172.985C460.429 166.545 462.07 159.073 462.07 150.568C462.07 142.063 460.429 134.652 457.149 128.334C453.868 121.894 449.312 116.973 443.48 113.571C437.648 110.169 430.905 108.468 423.25 108.468C415.596 108.468 408.792 110.169 402.838 113.571C397.006 116.973 392.45 121.894 389.17 128.334C385.889 134.652 384.249 142.063 384.249 150.568C384.249 159.073 385.889 166.545 389.17 172.985C392.45 179.424 397.006 184.406 402.838 187.929C408.792 191.331 415.596 193.032 423.25 193.032Z" />
<path d="M525.521 128.151C528.802 123.534 533.297 119.707 539.008 116.67C544.84 113.511 551.461 111.931 558.873 111.931C567.499 111.931 575.275 114.057 582.201 118.31C589.248 122.562 594.776 128.637 598.786 136.535C602.917 144.311 604.982 153.363 604.982 163.69C604.982 174.018 602.917 183.191 598.786 191.21C594.776 199.107 589.248 205.243 582.201 209.617C575.275 213.991 567.499 216.178 558.873 216.178C551.461 216.178 544.9 214.659 539.19 211.622C533.601 208.584 529.045 204.757 525.521 200.14V262.652H500.006V113.571H525.521V128.151ZM578.92 163.69C578.92 157.615 577.645 152.391 575.093 148.017C572.663 143.521 569.383 140.119 565.252 137.811C561.242 135.502 556.868 134.348 552.13 134.348C547.513 134.348 543.139 135.563 539.008 137.993C534.998 140.301 531.718 143.703 529.166 148.199C526.736 152.694 525.521 157.98 525.521 164.055C525.521 170.13 526.736 175.415 529.166 179.91C531.718 184.406 534.998 187.869 539.008 190.299C543.139 192.607 547.513 193.761 552.13 193.761C556.868 193.761 561.242 192.546 565.252 190.116C569.383 187.686 572.663 184.224 575.093 179.728C577.645 175.233 578.92 169.887 578.92 163.69Z" />
<path d="M715.559 161.868C715.559 165.513 715.316 168.793 714.83 171.709H641.019C641.627 178.999 644.178 184.71 648.674 188.841C653.169 192.972 658.697 195.037 665.258 195.037C674.735 195.037 681.479 190.967 685.488 182.826H713.008C710.092 192.546 704.503 200.565 696.241 206.883C687.979 213.08 677.834 216.178 665.805 216.178C656.085 216.178 647.337 214.052 639.561 209.799C631.907 205.425 625.892 199.29 621.518 191.392C617.266 183.495 615.14 174.382 615.14 164.055C615.14 153.606 617.266 144.432 621.518 136.535C625.771 128.637 631.724 122.562 639.379 118.31C647.033 114.057 655.842 111.931 665.805 111.931C675.404 111.931 683.969 113.997 691.502 118.128C699.157 122.259 705.05 128.151 709.181 135.806C713.433 143.339 715.559 152.026 715.559 161.868ZM689.133 154.578C689.012 148.017 686.642 142.792 682.025 138.904C677.408 134.895 671.759 132.89 665.076 132.89C658.758 132.89 653.412 134.834 649.038 138.722C644.786 142.488 642.173 147.774 641.201 154.578H689.133Z" />
<path d="M784.666 112.113C796.695 112.113 806.415 115.941 813.826 123.595C821.238 131.128 824.944 141.699 824.944 155.307V214.538H799.429V158.769C799.429 150.75 797.424 144.615 793.414 140.362C789.405 135.988 783.937 133.801 777.012 133.801C769.965 133.801 764.376 135.988 760.245 140.362C756.235 144.615 754.231 150.75 754.231 158.769V214.538H728.716V113.571H754.231V126.147C757.633 121.773 761.946 118.371 767.17 115.941C772.516 113.389 778.348 112.113 784.666 112.113Z" />
<path d="M884.017 215.814C875.147 215.814 867.128 214.295 859.96 211.257C852.913 208.22 847.324 203.846 843.193 198.135C839.062 192.425 836.935 185.682 836.814 177.906H864.151C864.516 183.13 866.338 187.261 869.619 190.299C873.021 193.336 877.638 194.855 883.47 194.855C889.423 194.855 894.101 193.458 897.503 190.663C900.905 187.747 902.606 183.981 902.606 179.364C902.606 175.597 901.452 172.499 899.143 170.069C896.835 167.639 893.919 165.756 890.395 164.419C886.993 162.961 882.255 161.382 876.18 159.681C867.918 157.251 861.175 154.881 855.95 152.573C850.847 150.143 846.412 146.559 842.646 141.82C839.001 136.96 837.178 130.521 837.178 122.502C837.178 114.969 839.062 108.408 842.828 102.819C846.595 97.2301 851.88 92.9776 858.684 90.0616C865.488 87.0241 873.264 85.5054 882.012 85.5054C895.134 85.5054 905.765 88.7251 913.906 95.1646C922.168 101.482 926.724 110.352 927.574 121.773H899.508C899.265 117.399 897.382 113.814 893.858 111.02C890.456 108.104 885.9 106.646 880.189 106.646C875.208 106.646 871.198 107.922 868.161 110.473C865.245 113.025 863.787 116.73 863.787 121.59C863.787 124.992 864.88 127.848 867.067 130.156C869.376 132.343 872.17 134.166 875.451 135.624C878.853 136.96 883.591 138.54 889.666 140.362C897.928 142.792 904.672 145.222 909.896 147.652C915.121 150.082 919.616 153.727 923.383 158.587C927.149 163.447 929.032 169.826 929.032 177.723C929.032 184.527 927.271 190.845 923.747 196.677C920.224 202.509 915.06 207.187 908.256 210.711C901.452 214.113 893.372 215.814 884.017 215.814Z" />
<path d="M1037.73 161.868C1037.73 165.513 1037.48 168.793 1037 171.709H963.182C963.789 178.999 966.34 184.71 970.836 188.841C975.331 192.972 980.86 195.037 987.421 195.037C996.898 195.037 1003.65 190.967 1007.66 182.826H1035.18C1032.26 192.546 1026.67 200.565 1018.41 206.883C1010.15 213.08 999.996 216.178 987.967 216.178C978.247 216.178 969.5 214.052 961.724 209.799C954.069 205.425 948.055 199.29 943.681 191.392C939.428 183.495 937.302 174.382 937.302 164.055C937.302 153.606 939.428 144.432 943.681 136.535C947.933 128.637 953.887 122.562 961.541 118.31C969.196 114.057 978.004 111.931 987.967 111.931C997.566 111.931 1006.14 113.997 1013.67 118.128C1021.32 122.259 1027.22 128.151 1031.35 135.806C1035.6 143.339 1037.73 152.026 1037.73 161.868ZM1011.3 154.578C1011.18 148.017 1008.81 142.792 1004.19 138.904C999.571 134.895 993.921 132.89 987.238 132.89C980.92 132.89 975.574 134.834 971.2 138.722C966.948 142.488 964.336 147.774 963.364 154.578H1011.3Z" />
<path d="M1046.14 163.69C1046.14 153.484 1048.15 144.432 1052.16 136.535C1056.29 128.637 1061.82 122.562 1068.74 118.31C1075.79 114.057 1083.63 111.931 1092.25 111.931C1099.79 111.931 1106.35 113.45 1111.94 116.487C1117.65 119.525 1122.2 123.352 1125.61 127.969V113.571H1151.3V214.538H1125.61V199.776C1122.32 204.514 1117.77 208.463 1111.94 211.622C1106.23 214.659 1099.6 216.178 1092.07 216.178C1083.57 216.178 1075.79 213.991 1068.74 209.617C1061.82 205.243 1056.29 199.107 1052.16 191.21C1048.15 183.191 1046.14 174.018 1046.14 163.69ZM1125.61 164.055C1125.61 157.858 1124.39 152.573 1121.96 148.199C1119.53 143.703 1116.25 140.301 1112.12 137.993C1107.99 135.563 1103.55 134.348 1098.81 134.348C1094.08 134.348 1089.7 135.502 1085.69 137.811C1081.68 140.119 1078.4 143.521 1075.85 148.017C1073.42 152.391 1072.21 157.615 1072.21 163.69C1072.21 169.765 1073.42 175.111 1075.85 179.728C1078.4 184.224 1081.68 187.686 1085.69 190.116C1089.82 192.546 1094.2 193.761 1098.81 193.761C1103.55 193.761 1107.99 192.607 1112.12 190.299C1116.25 187.869 1119.53 184.467 1121.96 180.093C1124.39 175.597 1125.61 170.251 1125.61 164.055Z" />
</svg>
