<svg viewBox="0 0 75 20" fill="currentColor" xmlns="http://www.w3.org/2000/svg">
<path d="M5.19 6.76C3.4 6.76 2.523 8.336 2.523 10.441V15.716H0V4.585H2.478V7.473H2.521C3.051 5.697 4.106 4.263 5.733 4.263C6.877 4.263 7.36 4.662 7.36 4.662L6.22 6.955C6.22 6.953 5.858 6.76 5.19 6.76ZM35.686 8.288V15.715H33.228V9.192C33.228 7.32 32.641 6.328 31.14 6.328C29.587 6.328 28.835 7.582 28.835 9.988V15.714H26.4V9.192C26.4 7.392 25.82 6.328 24.334 6.328C22.639 6.328 21.986 7.814 21.986 9.988V15.714H19.508V4.584H21.986V7.105H22.008C22.394 5.361 23.448 4.285 25.226 4.285C26.99 4.285 28.139 5.232 28.575 6.912C28.99 5.295 30.095 4.284 31.793 4.284C34.163 4.284 35.686 5.77 35.686 8.288ZM12.318 4.262C10.038 4.262 8.545 5.333 7.865 7.267L9.964 8.03C10.346 6.864 11.144 6.2 12.362 6.2C13.732 6.2 14.537 6.803 14.537 7.728C14.537 8.675 13.897 8.873 12.449 9.107C10.839 9.366 7.012 9.451 7.012 12.68C7.012 14.572 8.594 15.995 10.97 15.995C12.756 15.995 13.973 15.265 14.536 13.906H14.558V15.716H17.015V8.868C17.015 5.873 15.507 4.262 12.318 4.262ZM14.601 10.476C14.601 12.81 13.446 14.309 11.601 14.309C10.295 14.309 9.513 13.577 9.513 12.521C9.513 11.531 10.317 10.843 11.861 10.56C13.441 10.27 14.236 9.912 14.601 9.053V10.476ZM44.427 4.284C42.547 4.284 41.306 5.317 40.774 6.869V4.585H38.164V20H40.752V13.432H40.774C41.35 15.113 42.549 16.038 44.427 16.038C47.406 16.038 49.537 13.584 49.537 10.117C49.537 6.674 47.406 4.284 44.427 4.284ZM43.785 13.972C41.722 13.972 40.578 12.475 40.578 10.15C40.578 7.825 41.858 6.328 43.785 6.328C45.712 6.328 46.993 7.898 46.993 10.15C46.993 12.403 45.713 13.972 43.785 13.972ZM75.172 15.665V15.735L65.072 15.738V15.665C66.529 14.842 67.534 14.005 68.439 13.129H72.586L75.172 15.665ZM72.67 2.51L70.11 0H70.035C70.035 0 70.078 4.68 65.78 8.936C61.574 13.102 56.628 13.111 56.628 13.111V13.184L59.236 15.739C59.236 15.739 64.11 15.787 68.416 11.564C72.706 7.354 72.67 2.51 72.67 2.51Z" />
</svg>
