<svg viewBox="0 0 360 151" fill="none" xmlns="http://www.w3.org/2000/svg">
<path fill-rule="evenodd" clip-rule="evenodd" d="M360 78.2001C360 52.6001 347.6 32.4001 323.9 32.4001C300.1 32.4001 285.7 52.6001 285.7 78.0001C285.7 108.1 302.7 123.3 327.1 123.3C339 123.3 348 120.6 354.8 116.8V96.8001C348 100.2 340.2 102.3 330.3 102.3C320.6 102.3 312 98.9002 310.9 87.1002H359.8C359.8 85.8002 360 80.6002 360 78.2001ZM310.6 68.7001C310.6 57.4002 317.5 52.7001 323.8 52.7001C329.9 52.7001 336.4 57.4002 336.4 68.7001H310.6Z" fill="currentColor"/>
<path fill-rule="evenodd" clip-rule="evenodd" d="M247.1 32.4001C237.3 32.4001 231 37.0001 227.5 40.2001L226.2 34.0001H204.2V150.6L229.2 145.3L229.3 117C232.9 119.6 238.2 123.3 247 123.3C264.9 123.3 281.2 108.9 281.2 77.2001C281.1 48.2001 264.6 32.4001 247.1 32.4001ZM241.1 101.3C235.2 101.3 231.7 99.2001 229.3 96.6002L229.2 59.5001C231.8 56.6001 235.4 54.6002 241.1 54.6002C250.2 54.6002 256.5 64.8001 256.5 77.9001C256.5 91.3001 250.3 101.3 241.1 101.3Z" fill="currentColor"/>
<path fill-rule="evenodd" clip-rule="evenodd" d="M169.8 26.5L194.9 21.1V0.800049L169.8 6.10005V26.5Z" fill="currentColor"/>
<path d="M194.9 34.1001H169.8V121.6H194.9V34.1001Z" fill="currentColor"/>
<path fill-rule="evenodd" clip-rule="evenodd" d="M142.9 41.5001L141.3 34.1001H119.7V121.6H144.7V62.3001C150.6 54.6001 160.6 56.0001 163.7 57.1001V34.1001C160.5 32.9001 148.8 30.7001 142.9 41.5001Z" fill="currentColor"/>
<path fill-rule="evenodd" clip-rule="evenodd" d="M92.8999 12.4001L68.4999 17.6001L68.3999 97.7001C68.3999 112.5 79.4999 123.4 94.2999 123.4C102.5 123.4 108.5 121.9 111.8 120.1V99.8001C108.6 101.1 92.7999 105.7 92.7999 90.9001V55.4001H111.8V34.1002H92.7999L92.8999 12.4001Z" fill="currentColor"/>
<path fill-rule="evenodd" clip-rule="evenodd" d="M25.3 59.5001C25.3 55.6001 28.5 54.1002 33.8 54.1002C41.4 54.1002 51 56.4001 58.6 60.5001V37.0001C50.3 33.7001 42.1 32.4001 33.8 32.4001C13.5 32.4001 0 43.0001 0 60.7001C0 88.3001 38 83.9001 38 95.8001C38 100.4 34 101.9 28.4 101.9C20.1 101.9 9.5 98.5002 1.1 93.9002V117.7C10.4 121.7 19.8 123.4 28.4 123.4C49.2 123.4 63.5 113.1 63.5 95.2001C63.4 65.4001 25.3 70.7001 25.3 59.5001Z" fill="currentColor"/>
</svg>
