<svg version="1.1" fill="currentColor" xmlns="http://www.w3.org/2000/svg" xmlns:xlink="http://www.w3.org/1999/xlink"
	 viewBox="0 0 1147 250" style="enable-background:new 0 0 1147 250;" xml:space="preserve">
<path d="M484.1,196.3l-42-167.5h37.5l28.2,116h0.5l40.6-116h32.2l40.6,116h0.5l28.4-116h37.3l-42,167.5h-38.2l-42.5-112h-0.5
	l-42.7,112H484.1z"/>
<path d="M699.3,28.7h35.3v55.5h0.5c3.1-5.7,9.3-10.3,16.5-13.4c6.7-2.9,16.4-4.7,25-4.7c9.5,0,22.5,2.4,31.8,7.2
	c9.4,5.1,16.5,11.9,21.2,20.5c5.1,8.9,7.6,18.9,7.6,30.1v72.3H802v-67.6c0-9.9-2.9-17.5-8.8-22.9c-5.9-5.4-13.9-8.1-24.1-8.1
	c-10.2,0-18.3,2.9-24.8,8.6c-6.4,5.7-9.5,13.2-9.5,22.4v67.6h-35.3V28.7z"/>
<path d="M849.6,133c0-10,1.9-19.2,5.7-27.5c3.8-8.3,9-15.3,15.6-21.1c6.6-5.8,14.2-10.3,22.8-13.5c8.6-3.2,17.7-4.8,27.2-4.8
	c9.6,0,19.1,1.6,27.8,4.9c8.7,3.3,16.2,7.8,22.7,13.6c6.4,5.8,11.5,12.8,15.3,21c3.7,8.2,5.6,17.3,5.6,27.3c0,10-1.9,19.4-5.7,27.6
	c-3.8,8.2-9,15.2-15.5,21c-6.5,5.8-14.1,10.3-22.8,13.5c-8.7,3.2-17.8,4.8-27.3,4.8c-9.5,0-18.9-1.6-27.6-4.9
	c-8.7-3.3-16.2-7.8-22.7-13.7c-6.4-5.9-11.6-12.9-15.4-21.1C851.5,151.9,849.6,142.9,849.6,133L849.6,133z M957.1,133
	c0-10.8-3.3-19.5-9.9-26c-6.6-6.5-15.3-9.8-26.1-9.8c-5.3,0-10.1,0.9-14.6,2.6c-4.5,1.8-8.3,4.2-11.5,7.3c-3.2,3.1-5.6,6.9-7.4,11.3
	c-1.8,4.5-2.6,9.3-2.6,14.6c0,5.3,0.9,10.1,2.6,14.5c1.8,4.4,4.3,8.2,7.5,11.3c3.3,3.2,7.1,5.6,11.5,7.4c4.4,1.8,9.2,2.6,14.5,2.6
	c5.3,0,10.1-0.9,14.6-2.6c4.5-1.8,8.3-4.2,11.5-7.3c3.2-3.1,5.7-6.9,7.4-11.3C956.2,143.1,957.1,138.2,957.1,133z"/>
<path d="M1005.2,66.1h33.9v18.2h0.5c2.2-4.8,11.5-12.8,18.9-14.9c7.3-2.1,14.7-3.2,22.2-3.2c9.5,0,18.3,1.8,26.3,5.3
	c7.9,3.5,14.8,8.3,20.6,14.3c5.8,6.1,10.3,13.1,13.6,21.3c3.3,8.1,4.9,16.8,4.9,26c0,9.2-1.6,18.4-4.9,26.5
	c-3.3,8.1-7.8,15.2-13.6,21.1c-5.8,6-12.7,10.7-20.8,14.1c-8,3.4-16.8,5.1-26.1,5.1c-3,0-6.4-0.3-10.2-0.8c-3.8-0.6-7.4-1.4-11-2.5
	c-3.6-1.1-7-2.5-10.3-4.2c-3.3-1.7-6-3.6-8.2-5.9h-0.5V250h-35.3L1005.2,66.1L1005.2,66.1z M1110.7,133c0-10.8-3.3-19.5-9.8-25.9
	c-6.5-6.4-15.2-9.7-26-9.7c-3.8,0-7.8,0.6-11.8,1.9c-4.1,1.3-7.8,3.1-11.1,5.5c-3.3,2.4-6.1,5.3-8.2,8.6c-2.1,3.3-3.2,7.2-3.2,11.5
	v16c0,5.6,1.6,10.4,4.9,14.6c3.2,4.1,7.4,7.3,12.3,9.5c5.1,2.5,10.9,3.8,17.4,3.8c10.7,0,19.3-3.3,25.8-9.9
	C1107.5,152.3,1110.7,143.7,1110.7,133L1110.7,133z"/>
<path d="M60.9,0C35.7,0,18.4,11.1,5.2,23.5c0,0-5.3,5-5.2,5.2l55.2,55.2l55.2-55.2C99.9,14.3,80.2,0,60.9,0z"/>
<path d="M197.2,0c-25.2,0-42.5,11.1-55.7,23.5c0,0-4.8,4.9-5.1,5.2L68.2,96.9l55.1,55.1L246.6,28.7C236.1,14.3,216.5,0,197.2,0z"/>
<path d="M333.8,0c-25.2,0-42.5,11.1-55.7,23.5c0,0-5,4.9-5.2,5.2L136.4,165.2l14.4,14.4c22.3,22.3,58.9,22.3,81.3,0L383,28.7h0.2
	C372.8,14.3,353.1,0,333.8,0z"/>
</svg>
