<svg viewBox="0 0 159 43" fill="none" xmlns="http://www.w3.org/2000/svg">
<path d="M49.8965 12.7218C49.8965 11.4357 50.5222 10.8101 51.7735 10.8101C52.3991 10.8101 53.1986 10.8796 54.1371 11.0186L54.7975 7.50794C53.6853 7.22986 52.3991 7.09082 50.9393 7.09082C46.7334 7.09082 45.8992 10.1496 45.8992 12.0614V15.6764H43.3965V19.2566H45.8992V33.7858H49.8965V19.2566H54.4152V15.6764H49.8965V12.7218ZM68.4223 15.5025C66.302 15.5025 64.0079 16.1282 61.6094 17.4144L61.3662 15.6764H57.786V33.7858H61.7833V20.7859C63.7994 19.8822 66.0239 19.4303 68.4223 19.4303V15.5025ZM75.5252 12.7913C76.4983 11.8181 76.4983 10.0106 75.5252 9.07209C74.5865 8.1336 72.8487 8.1336 71.8754 9.07209C71.4236 9.52396 71.1802 10.1496 71.1802 10.9143C71.1802 11.679 71.4236 12.3047 71.8754 12.7913C72.8487 13.7298 74.5865 13.7298 75.5252 12.7913ZM75.6988 33.7858V15.6764H71.7015V33.7858H75.6988ZM95.3419 17.3795C93.3606 16.0935 90.9275 15.433 88.0772 15.433C85.505 15.433 83.3848 16.302 81.7511 18.04C80.1174 19.7431 79.2832 22.0025 79.2832 24.7485C79.2832 27.4945 80.1174 29.7538 81.7511 31.4569C83.3848 33.1602 85.505 34.0291 88.0772 34.0291C89.2938 34.0291 90.7189 33.8205 92.3873 33.4383V33.9248C92.3873 36.8447 91.2403 37.9221 88.4596 37.9221C86.652 37.9221 84.7751 37.6093 82.8634 36.9837L81.6815 40.0425C83.8366 40.8767 86.2002 41.2938 88.8071 41.2938C93.9516 41.2938 96.3846 38.8606 96.3846 33.7163V19.5346C96.3846 18.5265 96.0371 17.7966 95.3419 17.3795ZM88.2857 30.588C85.227 30.588 83.2457 28.2591 83.2457 24.7832C83.2457 21.3421 85.227 18.9436 88.2857 18.9436C89.7109 18.9436 91.0664 19.2217 92.3873 19.778V29.9624C90.9622 30.3795 89.6066 30.588 88.2857 30.588ZM109.097 15.433C106.351 15.433 103.536 16.0239 100.651 17.2405L101.971 20.1255C104.3 19.2217 106.455 18.7699 108.367 18.7699C110.557 18.7699 111.53 20.0212 111.53 22.9062V23.3929C111.078 23.3929 110.035 23.358 109.653 23.358C103.536 23.358 99.9902 25.5131 99.9902 29.1282C99.9902 32.1869 102.25 34.064 105.83 34.064C108.089 34.064 110.035 33.473 111.739 32.2911L111.947 33.7858H115.562V22.9409C115.562 17.9357 113.407 15.433 109.097 15.433ZM103.883 28.989C103.883 27.1468 106.003 26.2432 110.279 26.2432H111.53V29.5104C110.314 30.3446 108.263 30.9704 106.768 30.9704C104.856 30.9704 103.883 30.2056 103.883 28.989ZM132.102 16.0239C130.434 15.6415 129.009 15.433 127.792 15.433C125.22 15.433 123.1 16.302 121.466 18.04C119.832 19.7431 118.998 22.0025 118.998 24.7485C118.998 27.4945 119.832 29.719 121.466 31.4569C123.1 33.1602 125.22 34.0291 127.792 34.0291C130.608 34.0291 133.041 33.4034 135.057 32.1174C135.752 31.6655 136.1 30.9704 136.1 29.9624V7.9598H132.102V16.0239ZM128.001 30.5185C124.942 30.5185 122.961 28.1548 122.961 24.6789C122.961 21.203 124.942 18.8742 128.001 18.8742C129.322 18.8742 130.677 19.0828 132.102 19.4999V29.6843C130.782 30.2403 129.426 30.5185 128.001 30.5185ZM156.805 25.2351C156.805 22.3848 156.11 20.0559 154.754 18.2137C153.399 16.3714 151.348 15.433 148.602 15.433C145.995 15.433 143.875 16.302 142.241 18.0051C140.607 19.7084 139.773 21.9677 139.773 24.7485C139.773 27.4945 140.607 29.7538 142.241 31.4918C143.875 33.1949 146.03 34.064 148.671 34.064C151.07 34.064 153.503 33.5077 155.971 32.4303L154.65 29.5104C152.634 30.3795 150.757 30.7966 149.019 30.7966C146.273 30.7966 144.361 29.2324 143.84 26.4864H156.805V25.2351ZM143.736 23.5666C144.118 20.6122 145.856 18.6308 148.602 18.6308C151.348 18.6308 152.842 20.5079 153.086 23.5666H143.736Z" fill="white"/>
<path fill-rule="evenodd" clip-rule="evenodd" d="M18.2774 19.8089C16.5699 21.5165 15.4222 23.7789 15.1309 26.3039L24.7957 26.3642C25.1443 26.3639 25.4832 26.3258 25.8105 26.2543L25.8165 26.2531C27.9666 25.7957 29.5887 23.9086 29.6443 21.6316V21.5121C29.6443 20.1724 29.1035 18.9609 28.2245 18.0788C27.5718 17.429 26.741 16.9646 25.814 16.7665L25.8077 16.7651L25.8014 16.7637C25.4946 16.6946 25.1692 16.6584 24.8292 16.6558C22.2814 16.9391 19.9967 18.0897 18.2774 19.8089Z" fill="#0171F8"/>
<path fill-rule="evenodd" clip-rule="evenodd" d="M6.25138 7.78348C8.21233 5.81986 10.9206 4.60789 13.9149 4.60693L24.7873 4.67639H24.7908C27.4726 4.67639 29.6458 6.84891 29.6458 9.52996C29.6458 11.0802 28.9209 12.4599 27.7873 13.3503C26.9623 13.9967 25.9243 14.3827 24.7942 14.3836H24.7908L13.924 14.3155H13.9169C12.189 14.3155 10.5388 14.6499 9.0277 15.2577C8.30792 15.5471 7.61978 15.8984 6.96994 16.3052C6.12502 16.834 5.34459 17.4563 4.64326 18.1575C4.06292 18.737 3.53614 19.3718 3.07227 20.0519V15.4517C3.07227 12.4562 4.28422 9.74797 6.25029 7.78459L6.25138 7.78348Z" fill="#0171F8"/>
<path fill-rule="evenodd" clip-rule="evenodd" d="M3.07227 27.4331C3.07227 24.4375 4.28434 21.7279 6.25029 19.7646C6.84171 19.1723 7.50219 18.6474 8.21691 18.2046C9.87198 17.1789 11.8237 16.5877 13.915 16.5869H13.9184L18.5798 16.6161C17.8925 17.0848 17.252 17.616 16.6664 18.2017C14.553 20.3152 13.1453 23.144 12.8426 26.2954L12.7824 28.5607L12.8426 33C10.0433 33 3.07227 33 3.07227 33C3.07227 33 3.07264 30.1583 3.07227 27.4331Z" fill="#0171F8"/>
<path d="M3.07227 29.1782H12.778V33.5396C12.778 36.2198 10.6053 38.3925 7.92512 38.3925V38.3925C5.24496 38.3925 3.07227 36.2198 3.07227 33.5396V29.1782Z" fill="#0171F8"/>
</svg>
